<?xml version="1.0" standalone="no"?>
<!DOCTYPE svg PUBLIC "-//W3C//DTD SVG 20010904//EN"
 "http://www.w3.org/TR/2001/REC-SVG-20010904/DTD/svg10.dtd">
<svg version="1.0" xmlns="http://www.w3.org/2000/svg"
 width="893.000000pt" height="893.000000pt" viewBox="0 0 893.000000 893.000000"
 preserveAspectRatio="xMidYMid meet">
<metadata>
Created by potrace 1.14, written by Peter Selinger 2001-2017
</metadata>
<g transform="translate(0.000000,893.000000) scale(0.100000,-0.100000)"
fill="#000000" stroke="none">
<path d="M4110 8919 c-551 -45 -1093 -194 -1590 -440 -479 -236 -843 -500
-1220 -885 -338 -345 -588 -700 -805 -1139 -242 -492 -373 -938 -442 -1505
-25 -206 -25 -764 0 -970 52 -426 146 -806 292 -1175 66 -168 239 -516 332
-668 298 -486 691 -921 1132 -1252 1084 -813 2468 -1084 3779 -740 448 118
910 325 1302 584 269 179 489 361 730 607 338 345 588 700 805 1139 242 492
373 938 442 1505 14 112 18 222 18 485 0 263 -4 373 -18 485 -52 426 -146 806
-292 1175 -66 168 -239 516 -332 668 -298 486 -691 921 -1132 1252 -677 508
-1476 808 -2325 875 -150 12 -524 11 -676 -1z m349 -391 c1 -39 29 -117 54
-149 26 -36 68 -56 170 -79 45 -10 69 -19 53 -19 -49 -2 -150 -31 -187 -56
-44 -28 -73 -88 -91 -181 -7 -41 -14 -59 -15 -44 -17 132 -46 197 -105 234
-33 21 -120 45 -168 47 -25 0 -13 6 47 19 95 22 133 40 162 76 24 31 47 103
58 178 6 43 8 47 14 26 4 -14 7 -37 8 -52z m681 -290 c0 -5 4 -6 10 -3 16 10
23 -41 9 -67 -7 -14 -14 -18 -17 -10 -2 6 -10 12 -17 12 -7 0 -15 6 -18 13 -2
7 -8 8 -13 3 -5 -5 -3 -11 5 -14 11 -4 11 -6 0 -14 -10 -6 -7 -7 10 -3 16 5
21 4 17 -4 -10 -16 -26 -14 -48 6 -21 19 -23 52 -4 78 12 17 16 17 30 6 9 -8
19 -11 23 -7 3 3 1 6 -5 6 -7 0 -12 4 -12 10 0 5 7 7 15 4 8 -4 15 -10 15 -16z
m-1354 1 c5 -8 9 -8 14 1 6 9 13 5 25 -14 15 -22 16 -32 7 -52 -21 -45 -78
-45 -102 0 -11 22 -11 29 4 51 17 26 40 33 52 14z m2144 -115 c6 -14 10 -74
10 -133 0 -92 -3 -110 -18 -124 -33 -30 -42 -3 -42 126 0 113 9 157 31 157 5
0 14 -12 19 -26z m-2846 -6 c8 -30 8 -222 0 -242 -8 -21 -40 -21 -48 0 -8 21
-8 249 1 257 14 15 41 6 47 -15z m3314 -339 l32 -17 -27 -18 c-40 -26 -61 -55
-69 -94 l-7 -34 -13 43 c-14 49 -38 79 -74 93 l-25 9 32 15 c18 9 41 33 54 58
l22 43 21 -41 c13 -24 34 -48 54 -57z m-3724 67 c3 -14 24 -40 45 -58 l39 -32
-30 -19 c-16 -10 -37 -35 -46 -56 l-17 -39 -21 42 c-11 22 -34 50 -51 62 l-32
21 34 16 c22 11 38 28 46 51 15 42 24 45 33 12z m2245 -35 c261 -41 572 -122
775 -202 172 -69 406 -193 406 -216 0 -3 -35 -3 -77 0 -59 5 -995 9 -1233 5
-281 -4 -960 4 -960 12 0 6 -19 10 -42 10 -32 0 -39 -3 -28 -10 10 -7 -28 -10
-117 -10 -86 0 -134 4 -139 11 -4 7 -9 8 -13 1 -7 -11 -711 -22 -711 -11 0 12
252 136 380 187 302 120 678 211 997 242 159 15 611 4 762 -19z m-2919 -255
c27 -58 68 -82 170 -104 l81 -18 -65 -11 c-87 -15 -150 -46 -176 -88 -12 -19
-29 -66 -38 -105 -9 -38 -19 -70 -23 -70 -3 0 -10 24 -13 53 -18 135 -80 193
-229 213 l-52 7 71 18 c113 28 139 42 169 93 15 25 34 82 43 128 l16 83 12
-77 c7 -43 22 -98 34 -122z m5020 72 c21 -106 79 -156 209 -180 l62 -12 -75
-18 c-149 -35 -183 -70 -208 -215 l-12 -73 -17 87 c-28 134 -78 183 -213 206
l-64 11 89 22 c100 26 130 44 154 94 23 46 44 126 46 170 l1 35 8 -35 c5 -19
13 -61 20 -92z m-612 -406 c42 -31 70 -58 66 -64 -4 -7 -2 -8 4 -4 17 10 91
-54 267 -229 131 -131 353 -392 364 -428 2 -6 -4 -3 -13 8 -13 16 -15 17 -10
3 3 -10 3 -18 -1 -18 -4 0 -14 8 -21 18 -12 14 -13 14 -8 1 5 -15 -28 -17
-371 -17 l-376 -1 2 399 c2 286 5 397 13 393 6 -4 44 -31 84 -61z m-3829 -2
c0 -10 -2 -11 -6 -2 -2 6 -10 9 -15 6 -7 -4 -8 -2 -4 4 4 7 2 12 -3 12 -6 0
-11 5 -11 10 0 6 8 5 20 -2 11 -7 20 -20 19 -28z m-52 6 c-3 -8 -1 -17 6 -19
7 -2 2 -2 -11 0 -12 2 -22 0 -21 -4 3 -20 -2 -24 -17 -12 -15 12 -16 11 -9
-10 6 -20 4 -22 -13 -17 -28 9 -47 -16 -22 -31 14 -10 21 -9 30 2 7 8 21 15
31 15 10 0 21 5 24 10 3 6 15 10 25 10 10 0 21 8 23 18 3 9 5 -133 5 -315 0
-286 -2 -333 -15 -333 -8 0 -11 -5 -8 -10 4 -6 10 -8 14 -6 4 3 8 -1 8 -8 0
-8 -8 -12 -21 -9 -17 4 -18 3 -6 -6 11 -8 -29 -10 -145 -10 -95 1 -148 4 -130
9 l30 8 -36 1 c-20 0 -52 3 -70 6 l-34 5 35 -13 c31 -11 20 -12 -110 -15 -79
-1 -150 0 -158 3 -23 8 -3 25 31 25 24 0 28 -3 17 -10 -11 -7 -4 -9 25 -9 22
1 32 3 23 6 -33 8 -18 23 22 23 27 0 40 4 40 14 0 9 16 13 58 14 55 0 56 0 27
-13 -29 -12 -29 -13 14 -7 32 4 42 2 37 -6 -5 -9 9 -12 48 -12 30 0 58 5 61
10 3 6 17 10 31 10 15 0 23 4 19 10 -4 6 -2 16 3 23 5 7 12 28 16 47 5 26 4
32 -5 23 -6 -6 -13 -22 -14 -35 -1 -13 -3 -27 -4 -31 0 -5 -14 -6 -31 -2 -20
4 -30 3 -30 -5 0 -9 -5 -9 -17 1 -15 13 -16 11 -10 -11 5 -22 3 -25 -18 -25
-28 0 -33 19 -9 33 11 6 14 14 9 22 -6 10 -10 8 -16 -8 -7 -18 -12 -20 -33
-12 -29 11 -210 2 -214 -11 -2 -5 -7 -7 -11 -5 -4 3 -28 6 -52 7 -43 2 -45 4
-44 31 1 16 -2 31 -6 33 -4 3 -6 -6 -5 -20 2 -14 -4 -30 -13 -37 -9 -7 -13 -8
-9 -4 4 5 4 14 -2 21 -11 13 46 89 61 79 5 -3 7 -10 3 -15 -3 -5 -10 -7 -15
-4 -5 4 -9 -1 -9 -10 0 -9 4 -13 10 -10 5 3 7 0 4 -9 -5 -12 8 -13 78 -10 108
6 167 14 174 25 3 5 -6 9 -20 9 -24 0 -26 4 -26 40 0 34 3 40 21 40 20 0 21 4
17 51 -3 28 -12 56 -19 61 -11 8 -11 9 2 5 9 -3 26 3 38 14 12 11 21 17 21 13
0 -3 7 -1 16 6 9 8 37 13 70 11 l55 -2 -3 38 c-2 24 -8 37 -15 36 -29 -6 -10
39 20 50 11 4 21 16 24 28 3 11 11 18 18 15 7 -2 12 4 11 17 -1 29 -62 34 -77
6 -5 -11 -7 -24 -4 -29 3 -5 0 -7 -8 -4 -17 6 -19 -27 -3 -39 8 -6 7 -10 -2
-14 -6 -2 -10 -8 -7 -13 3 -4 -6 -7 -19 -6 -25 1 -25 16 0 16 8 0 14 4 14 9 0
13 -43 22 -54 11 -7 -7 -5 -10 5 -10 10 -1 9 -3 -4 -11 -9 -6 -14 -15 -10 -21
14 -23 10 -68 -6 -72 -49 -13 -72 -16 -67 -8 2 4 1 13 -3 20 -5 9 -14 5 -31
-13 -13 -14 -20 -28 -17 -32 4 -3 14 2 22 13 12 16 14 17 15 3 0 -19 -23 -31
-45 -23 -11 5 -14 1 -9 -12 5 -16 4 -16 -5 -4 -9 13 -11 13 -12 0 -1 -8 -1
-18 0 -22 0 -4 -7 -4 -16 -1 -12 5 -14 3 -8 -8 4 -8 5 -11 1 -7 -7 6 -46 -25
-46 -37 0 -12 24 -4 36 13 12 15 13 14 10 -11 -3 -29 -16 -50 -16 -26 0 11 -2
11 -10 -1 -8 -13 -10 -13 -10 0 0 12 -3 12 -16 -2 -10 -10 -13 -21 -8 -30 5
-7 9 -17 9 -23 0 -5 10 -11 21 -13 19 -3 24 5 35 47 l12 50 14 -27 c19 -37 13
-66 -15 -70 -15 -2 -22 -9 -18 -17 3 -10 -2 -11 -22 -6 -15 5 -40 7 -55 5 -25
-2 -26 -1 -11 13 13 14 17 14 26 2 8 -11 9 -10 4 4 -3 10 -6 24 -6 30 0 6 -7
1 -16 -12 -15 -21 -18 -22 -26 -7 -10 18 3 35 138 178 40 42 75 71 78 65 2 -7
5 -5 5 4 1 9 7 22 15 28 11 10 17 7 30 -10 8 -13 19 -20 22 -16 4 4 -3 18 -15
31 -19 20 -20 25 -8 33 9 4 39 31 69 58 93 89 213 182 227 177 8 -3 11 0 7 7
-4 6 -2 11 4 11 7 0 10 -6 7 -14z m3621 -1128 l-3 -1123 -30 0 c-28 0 -30 3
-37 45 -3 25 -7 500 -7 1056 -1 999 -1 1012 -21 1037 -14 18 -37 29 -73 37
-36 7 -505 10 -1557 8 -1408 -3 -1507 -4 -1537 -20 -17 -10 -35 -27 -38 -39
-10 -29 -10 -2103 -1 -2117 8 -13 -32 -16 -71 -6 l-23 6 0 1119 0 1119 1700 0
1700 0 -2 -1122z m-3688 1052 c0 -5 -5 -10 -11 -10 -5 0 -7 5 -4 10 3 6 8 10
11 10 2 0 4 -4 4 -10z m-60 -76 c0 -10 -51 -35 -59 -30 -19 12 0 33 29 33 17
0 30 -2 30 -3z m630 -91 c0 -4 -12 -25 -27 -47 l-28 -40 -3 29 c-3 21 3 35 18
47 23 19 40 23 40 11z m4409 -141 c1 -32 61 -91 100 -98 34 -7 52 -24 26 -24
-32 0 -85 -32 -104 -64 -11 -18 -23 -52 -28 -76 l-7 -45 -7 42 c-16 90 -54
132 -134 146 -13 2 -3 9 32 21 61 20 89 53 99 117 6 34 9 39 15 24 4 -11 8
-31 8 -43z m-5916 0 c8 -47 43 -81 105 -104 36 -12 41 -17 22 -17 -14 -1 -43
-11 -65 -24 -35 -19 -43 -31 -61 -87 l-21 -65 -7 48 c-10 65 -47 105 -111 122
l-50 12 57 17 c65 19 95 50 104 107 8 47 19 43 27 -9z m4084 17 c34 -13 80
-55 99 -91 10 -19 14 -62 14 -141 0 -171 -12 -387 -22 -387 -4 0 -8 80 -8 178
0 193 -10 274 -41 327 -23 38 -71 74 -77 57 -2 -6 -10 -8 -18 -5 -12 4 -18 -7
-16 -28 1 -4 -10 -9 -23 -12 -19 -3 -25 0 -25 14 0 11 -7 19 -15 19 -8 0 -15
6 -15 13 0 9 -2 9 -9 -1 -4 -7 -14 -12 -21 -10 -7 2 -16 -8 -20 -22 -4 -17 -8
-21 -14 -12 -4 7 -4 22 -1 35 5 17 4 19 -4 7 -10 -13 -12 -13 -21 0 -6 10 -10
11 -10 3 0 -7 -12 -13 -26 -13 -23 0 -26 -3 -21 -27 6 -35 -1 -53 -22 -53 -14
1 -14 2 2 11 23 14 22 29 -4 29 -12 0 -23 8 -26 20 -3 11 -10 20 -15 20 -5 0
-6 -9 -3 -20 8 -24 -10 -27 -19 -3 -5 12 -9 14 -18 5 -7 -7 -26 -12 -42 -12
l-31 -1 23 -18 c27 -23 27 -26 2 -28 -11 -1 -20 4 -20 13 0 8 -4 14 -10 14 -5
0 -10 6 -10 14 0 25 -26 25 -45 0 -18 -24 -45 -33 -45 -14 0 6 7 10 15 10 17
0 18 2 9 24 -3 9 -11 16 -16 16 -6 0 -8 -6 -5 -14 3 -8 -1 -17 -9 -20 -10 -4
-13 -14 -9 -33 6 -27 6 -27 -10 -8 -16 19 -17 19 -30 2 -11 -15 -17 -16 -34
-7 -26 13 -27 28 -3 46 9 7 13 13 7 13 -5 0 -18 -6 -28 -13 -15 -12 -17 -18
-7 -36 16 -30 3 -39 -16 -11 -16 22 -17 22 -36 4 -11 -10 -22 -17 -24 -15 -2
1 -4 -1 -3 -4 1 -8 -23 -24 -36 -24 -5 0 -4 4 3 9 11 7 11 11 -2 24 -21 20
-20 34 1 46 10 5 14 13 9 18 -5 4 -11 2 -13 -4 -5 -15 -33 -17 -33 -3 0 6 -7
10 -15 10 -8 0 -15 -8 -15 -17 0 -14 2 -15 9 -4 6 9 11 10 15 2 4 -6 5 -15 2
-20 -3 -5 1 -11 9 -15 8 -3 15 -10 15 -16 0 -16 -27 -11 -34 7 -5 12 -10 13
-18 5 -8 -8 -6 -15 6 -28 9 -9 14 -19 11 -22 -3 -3 -11 3 -19 13 -7 10 -18 15
-25 11 -6 -4 -11 -4 -10 1 4 16 -13 43 -27 43 -18 0 -18 -8 1 -26 8 -9 15 -20
15 -25 0 -16 -19 -10 -30 10 -8 16 -13 18 -35 8 -27 -13 -31 -22 -15 -32 6 -3
10 -10 10 -16 0 -5 -4 -9 -10 -9 -5 0 -10 6 -10 14 0 8 -6 17 -12 20 -10 5
-10 7 0 12 19 9 14 24 -9 24 -15 0 -19 -5 -15 -15 8 -23 -11 -18 -28 7 -13 18
-16 19 -16 6 0 -9 5 -20 10 -23 15 -9 12 -25 -5 -25 -8 0 -15 7 -15 15 0 8 -5
15 -10 15 -6 0 -13 -7 -16 -15 -4 -8 -12 -15 -20 -15 -8 0 -14 -4 -14 -10 0
-5 -7 -10 -15 -10 -8 0 -15 5 -15 10 0 6 7 10 15 10 8 0 15 7 15 15 0 8 -7 15
-16 15 -8 0 -12 -4 -9 -10 3 -5 -1 -10 -10 -10 -12 0 -15 6 -10 20 4 11 2 20
-4 20 -6 0 -11 -4 -11 -10 0 -5 -7 -10 -15 -10 -8 0 -15 5 -15 10 0 6 -5 10
-12 10 -9 0 -9 -3 0 -12 16 -16 15 -38 -2 -38 -8 0 -17 -8 -20 -17 -5 -12 -9
-14 -18 -5 -9 9 -7 15 8 26 10 8 15 18 11 23 -5 4 -14 0 -22 -10 -7 -10 -19
-15 -29 -11 -22 8 -21 -15 1 -32 10 -7 15 -15 12 -18 -3 -3 -15 3 -27 14 -12
11 -26 20 -32 20 -14 0 -13 -17 3 -23 7 -2 8 -8 3 -13 -5 -5 -11 -4 -13 4 -5
14 -33 16 -33 2 0 -26 -40 -1 -53 34 -6 16 -10 16 -24 5 -15 -13 -15 -14 0
-17 10 -2 17 -10 17 -17 0 -7 6 -16 13 -19 6 -3 2 -3 -10 -1 -12 3 -24 1 -28
-5 -9 -15 -35 -12 -35 5 0 8 -4 15 -10 15 -5 0 -10 5 -10 10 0 18 19 10 25
-11 7 -21 26 -22 33 -1 2 7 -4 12 -13 12 -9 0 -15 6 -13 12 4 12 -14 38 -27
38 -3 0 -5 -8 -3 -17 5 -27 -24 -22 -40 7 l-14 25 7 -30 c4 -16 12 -33 18 -37
9 -5 9 -10 -1 -20 -9 -9 -12 -9 -12 5 0 9 -7 17 -15 17 -7 0 -18 8 -24 17 -5
10 -13 15 -17 11 -4 -4 -1 -15 6 -23 10 -12 10 -19 2 -27 -9 -9 -12 -8 -12 6
0 9 -4 14 -10 11 -5 -3 -10 1 -10 10 0 9 -4 13 -10 10 -5 -3 -10 -1 -10 4 0 6
-5 11 -12 11 -6 0 -2 -10 9 -22 22 -25 41 -84 23 -73 -5 3 -10 11 -10 16 0 22
-29 40 -55 33 -15 -4 -25 -2 -25 5 0 6 -7 11 -16 11 -8 0 -12 5 -9 10 3 6 1
10 -4 10 -16 0 -13 -16 5 -34 8 -9 12 -16 8 -16 -4 0 1 -7 12 -16 13 -11 10
-10 -13 2 -18 10 -33 24 -33 31 0 7 -4 13 -8 13 -17 0 -21 -13 -11 -31 17 -32
-8 -22 -28 11 -9 17 -23 30 -31 30 -7 0 -11 4 -7 9 6 11 -33 26 -42 17 -4 -3
-1 -6 5 -6 7 0 21 -9 33 -21 15 -15 18 -24 10 -32 -8 -8 -15 -6 -24 7 -12 16
-16 17 -36 5 -18 -12 -23 -12 -32 1 -8 11 -12 12 -16 3 -2 -7 -13 -13 -23 -13
-10 0 -20 6 -23 13 -2 7 -8 8 -13 3 -5 -5 -4 -11 4 -13 20 -7 14 -30 -10 -37
-22 -5 -22 -6 -3 -20 17 -13 18 -15 3 -16 -19 0 -68 42 -68 59 0 13 -17 15
-25 2 -3 -6 3 -14 12 -20 14 -7 15 -13 6 -21 -8 -9 -14 -7 -23 10 -9 16 -15
19 -24 10 -16 -12 -42 -4 -50 16 -7 19 -26 18 -26 -1 0 -8 5 -15 10 -15 6 0
10 -7 10 -15 0 -13 7 -15 35 -9 24 4 35 3 35 -6 0 -7 -7 -10 -17 -6 -9 4 -20
2 -23 -5 -9 -14 -50 9 -50 28 0 23 -25 14 -53 -18 -15 -17 -27 -35 -27 -41 0
-5 -4 -6 -10 -3 -5 3 -10 1 -10 -4 0 -6 5 -11 10 -11 13 0 50 37 50 50 0 6 7
10 15 10 18 0 20 -30 3 -30 -7 -1 -27 -20 -45 -43 -24 -32 -29 -43 -18 -45 19
-4 19 -17 0 -36 -8 -8 -15 -17 -15 -20 0 -3 7 -6 15 -6 8 0 15 -7 15 -15 0 -8
-6 -15 -14 -15 -8 0 -16 -6 -19 -12 -3 -10 -9 -10 -23 -2 -22 13 -32 64 -12
64 11 0 11 2 0 9 -10 6 -13 48 -10 189 3 206 8 218 88 260 l44 22 1132 0 c776
0 1142 -3 1161 -11z m-3468 -42 c8 -11 5 -14 -19 -14 -26 0 -27 2 -12 13 9 8
18 14 18 14 1 0 7 -6 13 -13z m3241 -60 c0 -5 -4 -5 -10 -2 -5 3 -10 14 -10
23 0 15 2 15 10 2 5 -8 10 -19 10 -23z m236 11 c14 -17 15 -19 2 -10 -9 8 -26
11 -37 7 -11 -3 -23 0 -27 6 -5 9 -2 10 9 6 9 -3 19 -2 22 3 8 13 9 13 31 -12z
m-266 -9 c0 -5 -4 -9 -10 -9 -5 0 -10 7 -10 16 0 8 5 12 10 9 6 -3 10 -10 10
-16z m105 11 c-3 -5 -13 -10 -21 -10 -8 0 -14 5 -14 10 0 6 9 10 21 10 11 0
17 -4 14 -10z m-345 -31 c0 -5 -4 -9 -10 -9 -5 0 -10 7 -10 16 0 8 5 12 10 9
6 -3 10 -10 10 -16z m105 1 c3 -5 -1 -10 -9 -10 -9 0 -16 5 -16 10 0 6 4 10 9
10 6 0 13 -4 16 -10z m55 -10 c0 -5 -7 -10 -16 -10 -8 0 -12 5 -9 10 3 6 10
10 16 10 5 0 9 -4 9 -10z m-185 -10 c3 -5 1 -10 -4 -10 -6 0 -11 5 -11 10 0 6
2 10 4 10 3 0 8 -4 11 -10z m40 -9 c3 -5 1 -12 -5 -16 -5 -3 -10 1 -10 9 0 18
6 21 15 7z m100 -1 c3 -5 1 -10 -4 -10 -6 0 -11 5 -11 10 0 6 2 10 4 10 3 0 8
-4 11 -10z m-171 -16 c3 -8 2 -12 -4 -9 -6 3 -10 10 -10 16 0 14 7 11 14 -7z
m-172 -9 c0 -5 -5 -11 -11 -13 -6 -2 -11 4 -11 13 0 9 5 15 11 13 6 -2 11 -8
11 -13z m373 -5 c-3 -5 -12 -10 -18 -10 -7 0 -6 4 3 10 19 12 23 12 15 0z
m-610 -10 c3 -5 -1 -10 -9 -10 -9 0 -16 5 -16 10 0 6 4 10 9 10 6 0 13 -4 16
-10z m135 0 c0 -5 -5 -10 -11 -10 -5 0 -7 5 -4 10 3 6 8 10 11 10 2 0 4 -4 4
-10z m220 0 c0 -5 -4 -10 -10 -10 -5 0 -10 5 -10 10 0 6 5 10 10 10 6 0 10 -4
10 -10z m-620 -10 c0 -5 -4 -10 -10 -10 -5 0 -10 5 -10 10 0 6 5 10 10 10 6 0
10 -4 10 -10z m113 -5 c4 -8 2 -17 -3 -20 -6 -4 -10 3 -10 14 0 25 6 27 13 6z
m72 -5 c-3 -5 -14 -10 -23 -10 -15 0 -15 2 -2 10 20 13 33 13 25 0z m105 -9
c0 -5 -7 -12 -16 -15 -14 -5 -15 -4 -4 9 14 17 20 19 20 6z m-326 -10 c3 -5
-1 -11 -9 -15 -9 -3 -15 0 -15 9 0 16 16 20 24 6z m56 0 c0 -5 -9 -7 -20 -4
-11 3 -20 7 -20 9 0 2 9 4 20 4 11 0 20 -4 20 -9z m70 -11 c0 -5 -4 -10 -10
-10 -5 0 -10 5 -10 10 0 6 5 10 10 10 6 0 10 -4 10 -10z m-850 -29 c13 -25 13
-31 0 -31 -5 0 -10 7 -10 15 0 17 -9 19 -30 5 -13 -8 -12 -11 5 -24 11 -8 18
-17 15 -19 -3 -3 -16 3 -30 14 l-25 19 25 20 c31 25 37 25 50 1z m46 5 c16
-17 19 -36 4 -36 -5 0 -10 7 -10 15 0 8 -4 15 -10 15 -5 0 -10 5 -10 10 0 14
9 12 26 -4z m59 -6 c-3 -5 -10 -10 -16 -10 -5 0 -9 5 -9 10 0 6 7 10 16 10 8
0 12 -4 9 -10z m147 -5 c0 -5 -5 -11 -11 -13 -6 -2 -11 4 -11 13 0 9 5 15 11
13 6 -2 11 -8 11 -13z m113 5 c-3 -5 -10 -10 -16 -10 -5 0 -9 5 -9 10 0 6 7
10 16 10 8 0 12 -4 9 -10z m209 -5 c-4 -8 -10 -15 -15 -15 -4 0 -6 7 -3 15 4
8 10 15 15 15 4 0 6 -7 3 -15z m116 11 c0 -3 -4 -8 -10 -11 -5 -3 -10 -1 -10
4 0 6 5 11 10 11 6 0 10 -2 10 -4z m-70 -16 c0 -5 -2 -10 -4 -10 -3 0 -8 5
-11 10 -3 6 -1 10 4 10 6 0 11 -4 11 -10z m-2394 -18 c-15 -18 -15 -20 2 -35
10 -10 27 -18 38 -18 18 -1 18 -2 1 -6 -10 -3 -28 4 -39 14 -21 17 -21 17 -14
-1 5 -16 4 -17 -9 -6 -13 11 -13 15 -3 21 7 5 9 9 4 9 -5 0 -1 9 9 20 10 11
20 20 23 20 3 0 -2 -8 -12 -18z m1949 8 c3 -5 1 -10 -4 -10 -6 0 -11 5 -11 10
0 6 2 10 4 10 3 0 8 -4 11 -10z m365 0 c0 -5 -4 -10 -10 -10 -5 0 -10 5 -10
10 0 6 5 10 10 10 6 0 10 -4 10 -10z m-680 -30 c0 -5 -2 -10 -4 -10 -3 0 -8 5
-11 10 -3 6 -1 10 4 10 6 0 11 -4 11 -10z m340 0 c0 -5 -4 -10 -10 -10 -5 0
-10 5 -10 10 0 6 5 10 10 10 6 0 10 -4 10 -10z m-320 -30 c0 -5 -5 -10 -11
-10 -5 0 -7 5 -4 10 3 6 8 10 11 10 2 0 4 -4 4 -10z m-95 -10 c3 -6 -1 -7 -9
-4 -18 7 -21 14 -7 14 6 0 13 -4 16 -10z m-85 -20 c0 -5 -4 -10 -10 -10 -5 0
-10 5 -10 10 0 6 5 10 10 10 6 0 10 -4 10 -10z m-30 -30 c0 -5 -4 -10 -9 -10
-6 0 -13 5 -16 10 -3 6 1 10 9 10 9 0 16 -4 16 -10z m20 -30 c0 -5 -5 -10 -11
-10 -5 0 -7 5 -4 10 3 6 8 10 11 10 2 0 4 -4 4 -10z m-743 -57 c-9 -2 -15 -8
-12 -13 3 -5 13 -7 23 -4 9 3 6 -2 -8 -11 -14 -9 -17 -14 -7 -11 16 5 18 0 16
-42 -2 -45 -4 -48 -26 -44 -12 2 -20 8 -18 13 3 4 12 6 20 2 9 -3 15 1 15 11
0 9 -8 16 -19 16 -11 0 -21 9 -24 21 -3 12 -10 18 -16 14 -6 -3 -11 1 -11 9 0
9 6 16 13 17 6 0 3 4 -8 9 -28 12 -175 12 -175 0 0 -5 -18 -10 -40 -10 -22 0
-40 5 -40 10 0 14 -153 13 -167 -1 -6 -6 -71 -11 -166 -12 -156 -2 -205 9 -72
16 l70 3 -76 2 c-54 1 -80 -2 -88 -11 -6 -8 -7 -17 -3 -21 4 -4 -5 -2 -20 4
-15 7 -24 18 -21 25 4 11 92 13 441 13 240 0 429 -2 419 -5z m4619 -4 c3 -6 1
-16 -5 -22 -9 -9 -10 -7 -5 8 7 18 6 19 -10 6 -13 -11 -60 -15 -204 -16 -103
-1 -189 0 -192 4 -3 3 -103 5 -222 3 l-217 -3 -4 -32 c-3 -27 -4 -26 -3 6 1
20 -2 37 -7 37 -4 0 -5 5 -2 10 9 14 862 13 871 -1z m-4938 -32 c3 -16 -4 -18
-75 -15 -64 3 -78 6 -81 20 -3 16 5 17 75 15 66 -2 78 -5 81 -20z m209 16
c-20 -2 -52 -2 -70 0 -17 2 0 4 38 4 39 0 53 -2 32 -4z m-767 -35 c-25 -27
-44 -58 -34 -58 4 0 13 8 20 18 7 9 14 12 14 5 0 -6 -4 -14 -10 -18 -13 -8 0
-36 14 -29 6 3 2 -2 -9 -12 -18 -15 -18 -16 -2 -10 10 3 51 7 90 7 40 1 62 4
50 6 -13 2 -23 9 -23 14 0 6 -8 5 -21 -1 -11 -6 -30 -9 -42 -7 -18 4 -17 5 6
6 20 1 27 6 27 21 0 13 7 20 20 20 10 0 23 6 27 13 4 8 17 17 28 22 19 8 19 9
-2 12 -12 3 -31 -1 -42 -7 -12 -6 -21 -7 -21 -1 0 5 11 12 24 15 35 9 177 5
171 -4 -3 -5 -2 -16 2 -27 6 -16 8 -15 14 7 6 21 7 19 9 -15 1 -31 3 -35 9
-20 5 11 6 26 3 34 -4 10 -1 13 12 8 10 -4 30 -7 44 -8 l27 -1 -25 -7 -25 -7
26 -5 c14 -3 96 -4 182 -2 86 1 157 -1 157 -6 0 -5 13 -7 29 -6 16 1 35 -1 43
-6 8 -6 -3 -9 -32 -10 l-45 -2 35 -7 c23 -5 -2 -7 -73 -8 -60 0 -111 -3 -115
-7 -3 -3 50 -6 118 -5 183 2 205 -3 45 -10 l-140 -6 147 -2 c81 -1 149 -6 152
-10 2 -4 -12 -6 -32 -4 -28 2 -33 1 -22 -7 11 -8 -49 -11 -207 -11 -140 0
-223 4 -223 10 0 5 -29 9 -66 9 -37 -1 -69 3 -73 7 -3 5 -26 8 -51 8 -25 -1
-81 -2 -125 -3 -48 -1 -75 -5 -67 -10 10 -6 9 -10 -7 -14 -12 -3 -19 -1 -15 4
3 5 -2 9 -11 9 -9 0 -13 -4 -10 -10 3 -5 1 -10 -6 -10 -6 0 -9 8 -6 20 3 11 1
20 -3 20 -5 0 -12 -9 -15 -20 -3 -11 -13 -20 -22 -20 -17 0 -19 -4 32 88 21
39 45 72 52 72 9 0 6 -8 -7 -22z m763 15 c-24 -2 -62 -2 -85 0 -24 2 -5 4 42
4 47 0 66 -2 43 -4z m4777 -31 c11 -18 17 -40 14 -49 -5 -14 -4 -15 4 -4 8 11
13 8 26 -17 9 -17 16 -36 16 -42 0 -14 -30 -13 -31 3 0 10 -2 10 -6 0 -3 -9
-31 -13 -91 -13 -101 0 -164 9 -156 21 3 5 -9 9 -25 9 -31 0 -42 -14 -18 -23
6 -2 -5 -4 -25 -4 -21 1 -38 5 -38 9 0 4 -39 7 -87 6 l-88 -2 85 -6 c52 -4
-28 -7 -207 -8 l-293 -2 2 45 c1 24 6 39 10 32 4 -6 5 -22 1 -34 -3 -14 -1
-23 7 -23 6 0 9 4 5 9 -3 5 4 13 15 16 16 5 19 10 10 20 -17 21 -8 79 13 83
14 3 17 -4 17 -37 0 -26 5 -41 13 -41 9 0 9 -2 -1 -9 -28 -17 14 -32 85 -28
l68 3 -70 2 -70 2 -3 55 -3 55 33 -1 c18 0 56 -4 83 -9 l50 -7 -42 -2 c-38 -1
-43 -4 -42 -23 0 -13 3 -17 6 -9 5 11 7 11 14 0 7 -12 9 -11 9 1 0 13 1 13 10
0 9 -13 10 -13 10 0 0 13 1 13 10 0 6 -10 10 -11 10 -2 0 8 16 12 45 12 41 0
45 -2 45 -24 0 -22 -5 -25 -42 -29 -24 -2 16 -4 88 -5 119 -2 133 0 149 18 10
11 21 17 25 15 4 -3 10 2 14 10 4 10 -1 15 -14 15 -11 0 -20 6 -20 13 0 22 10
26 35 17 16 -6 25 -5 29 3 3 8 9 6 16 -6 11 -17 14 -17 35 -3 30 20 35 20 35
1 0 -8 5 -15 11 -15 5 0 8 4 4 9 -3 5 -1 12 4 15 5 3 12 -2 15 -11 6 -15 8
-15 19 0 14 18 44 24 110 22 43 -2 51 -6 67 -33z m-4016 13 c11 -8 15 -15 9
-15 -19 0 -43 12 -43 21 0 13 12 11 34 -6z m46 -13 c0 -15 -2 -15 -10 -2 -13
20 -13 33 0 25 6 -3 10 -14 10 -23z m3538 11 c-10 -2 -26 -2 -35 0 -10 3 -2 5
17 5 19 0 27 -2 18 -5z m-3568 -33 c-7 -4 -9 -13 -6 -19 4 -6 1 -11 -8 -11 -8
0 -17 -6 -20 -12 -3 -7 -3 -3 0 10 3 13 1 22 -6 22 -24 0 0 15 26 17 17 0 22
-2 14 -7z m40 -14 c0 -3 -4 -8 -10 -11 -5 -3 -10 -1 -10 4 0 6 5 11 10 11 6 0
10 -2 10 -4z m3508 -23 c-10 -2 -26 -2 -35 0 -10 3 -2 5 17 5 19 0 27 -2 18
-5z m-3533 -13 c3 -5 1 -10 -4 -10 -6 0 -11 5 -11 10 0 6 2 10 4 10 3 0 8 -4
11 -10z m-25 -16 c0 -3 -7 -12 -15 -20 -16 -17 -18 -14 -9 10 6 15 24 23 24
10z m-1361 -18 c-11 -10 -89 -17 -89 -7 0 5 19 11 43 13 42 3 54 1 46 -6z
m1356 -36 c-3 -5 -11 -10 -16 -10 -6 0 -7 5 -4 10 3 6 11 10 16 10 6 0 7 -4 4
-10z m5 -25 c-7 -8 -17 -15 -23 -15 -6 0 -2 7 9 15 25 19 30 19 14 0z m-2035
-149 l-40 -41 -40 40 -40 40 40 40 40 41 40 -40 40 -40 -40 -40z m6599 76 l41
-38 -41 -39 -40 -40 -40 40 -39 40 35 36 c19 20 37 37 39 38 2 0 22 -16 45
-37z m-6213 14 c5 3 9 -2 9 -11 0 -9 -5 -13 -11 -9 -6 3 -15 0 -20 -7 -4 -7
-11 -11 -14 -7 -4 3 0 16 7 27 7 12 14 17 16 11 2 -6 8 -8 13 -4z m1009 -13
l0 -23 -432 1 c-238 1 -422 4 -408 8 20 6 15 9 -30 14 -30 4 -70 7 -87 7 -18
0 -33 4 -33 10 0 6 172 9 495 7 l495 -2 0 -22z m4778 0 l9 -28 -506 3 c-278 1
-516 4 -528 7 -15 3 -20 11 -16 23 4 17 31 18 518 20 l513 3 10 -28z m-5825
-140 c3 9 123 12 525 13 490 1 521 0 525 -16 3 -14 -3 -19 -25 -24 -52 -10
-965 -6 -943 5 14 6 0 8 -47 5 -37 -2 -66 0 -63 4 3 4 -2 10 -10 14 -9 3 -15
0 -15 -9 0 -7 -5 -17 -12 -21 -6 -4 -9 -3 -6 2 3 5 8 17 12 28 6 17 8 17 30 2
18 -11 26 -12 29 -3z m4794 2 c0 -8 -4 -15 -9 -15 -10 0 -11 14 -1 23 9 10 10
9 10 -8z m819 9 c75 -4 120 -10 112 -15 -9 -6 -7 -9 9 -9 12 0 23 5 25 11 3 9
17 9 57 -1 28 -7 49 -15 46 -19 -4 -3 -248 -6 -543 -6 -296 0 -517 3 -492 6
28 4 35 7 20 9 -22 2 -21 3 10 11 19 5 50 6 68 3 19 -3 32 -1 28 4 -7 11 491
16 660 6z m284 -38 c0 -5 -8 -1 -19 10 -10 10 -16 23 -13 28 5 10 32 -21 32
-38z m-5847 -3 c-7 -2 -19 -2 -25 0 -7 3 -2 5 12 5 14 0 19 -2 13 -5z m-143
-102 c0 -5 -7 -12 -16 -15 -14 -5 -15 -4 -4 9 14 17 20 19 20 6z m1135 -16 c0
-20 -7 -20 -485 -20 l-485 0 445 5 c245 3 425 7 400 10 -103 10 -171 12 -500
16 -190 2 -356 6 -370 8 -14 1 205 3 485 2 503 -1 510 -1 510 -21z m4874 21
c-2 -3 -16 -6 -31 -8 -15 -2 -30 -7 -34 -10 -3 -4 -17 -3 -31 3 -30 11 -143
12 -143 1 0 -5 -126 -8 -279 -8 -153 1 -278 3 -276 6 2 3 -15 4 -38 1 -23 -2
-44 -7 -47 -12 -3 -4 -12 -4 -19 0 -44 27 10 31 451 31 248 0 449 -2 447 -4z
m27 -31 c1 -8 -2 -13 -7 -9 -5 3 -9 12 -9 21 0 19 13 9 16 -12z m-5403 8 c-13
-2 -33 -2 -45 0 -13 2 -3 4 22 4 25 0 35 -2 23 -4z m5196 -18 c2 -3 -112 -4
-255 -3 -142 1 -230 4 -194 7 73 7 441 3 449 -4z m-556 -2 c-13 -2 -33 -2 -45
0 -13 2 -3 4 22 4 25 0 35 -2 23 -4z m704 0 c-20 -2 -52 -2 -70 0 -17 2 0 4
38 4 39 0 53 -2 32 -4z m103 -112 c5 -11 10 -22 10 -25 0 -2 -235 -5 -522 -5
-309 0 -515 4 -503 9 14 6 -8 9 -70 11 l-90 2 105 8 c58 5 308 8 557 7 248 -2
449 0 446 5 -2 4 9 7 26 7 20 0 34 -7 41 -19z m-4940 -11 c0 -19 -11 -19 -551
-20 -373 0 -548 3 -544 10 4 6 -9 10 -32 11 -30 0 -34 2 -18 9 11 5 273 9 583
9 551 1 562 1 562 -19z m-1170 6 c0 -2 -11 -6 -25 -8 -14 -3 -25 -1 -25 3 0 5
11 9 25 9 14 0 25 -2 25 -4z m4993 -23 c-7 -2 -19 -2 -25 0 -7 3 -2 5 12 5 14
0 19 -2 13 -5z m-5374 -44 l36 -41 -37 -38 -38 -38 -38 38 -37 38 35 40 c19
23 37 41 39 42 2 0 20 -19 40 -41z m6894 11 c10 -16 27 -35 39 -41 20 -11 20
-11 -6 -29 -15 -9 -34 -27 -42 -38 -15 -22 -15 -22 -55 20 l-39 42 37 38 c20
21 40 38 43 38 3 0 14 -13 23 -30z m-6573 -80 c0 -5 -8 -10 -17 -10 -15 0 -16
2 -3 10 19 12 20 12 20 0z m280 -1 c-26 -7 -261 -1 -270 7 -2 3 63 4 145 3 83
-2 139 -6 125 -10z m78 4 c-10 -2 -26 -2 -35 0 -10 3 -2 5 17 5 19 0 27 -2 18
-5z m422 -4 c-31 -5 -6 -7 80 -6 137 1 344 -13 334 -22 -9 -10 -1234 -9 -1234
0 0 5 14 7 31 4 17 -3 28 -2 26 2 -3 5 124 7 281 7 190 -1 314 3 367 11 44 7
98 13 120 12 l40 0 -45 -8z m5428 -8 c3 -9 0 -11 -8 -6 -10 6 -12 4 -7 -8 3
-10 2 -17 -3 -17 -6 0 -10 6 -10 14 0 14 -29 18 -195 30 -27 2 10 3 84 2 105
-1 135 -4 139 -15z m-5005 2 c-18 -2 -48 -2 -65 0 -18 2 -4 4 32 4 36 0 50 -2
33 -4z m4177 -5 c3 -4 129 -8 280 -9 151 -1 295 -5 320 -9 26 -5 -84 -8 -260
-7 -341 1 -520 6 -520 16 0 3 37 4 81 2 59 -2 80 0 75 8 -8 12 15 11 24 -1z
m-271 -12 c-10 -9 -139 -15 -134 -6 3 6 36 10 72 10 37 0 64 -2 62 -4z m1051
-5 c0 -4 -28 -8 -62 -8 -52 0 -57 1 -28 7 51 11 90 11 90 1z m-4396 -304 l41
-22 1269 -3 c1103 -2 1277 0 1321 13 55 16 130 74 154 119 8 14 17 26 21 26 3
0 11 -19 17 -42 12 -43 11 -43 -30 -85 -81 -84 35 -78 -1452 -78 l-1320 0 -55
27 c-30 15 -69 40 -87 55 -29 26 -31 31 -26 77 l6 49 50 -57 c27 -31 68 -67
91 -79z m-2092 -124 c34 -30 41 -63 23 -104 -15 -33 -15 -39 -1 -74 20 -48 20
-55 -2 -55 -12 0 -26 15 -38 41 -25 57 -39 69 -80 69 l-34 0 0 -55 c0 -48 -2
-55 -20 -55 -19 0 -20 7 -20 103 0 67 4 109 13 120 27 39 121 44 159 10z
m6958 12 c51 -26 60 -50 60 -153 0 -91 -1 -93 -22 -90 -22 3 -23 9 -28 96 -5
96 -13 112 -54 112 -43 0 -56 -27 -56 -122 0 -81 -2 -88 -20 -88 -19 0 -20 7
-20 96 0 105 7 126 48 148 35 19 56 20 92 1z m-5120 -211 c0 -3 -5 -14 -10
-25 -10 -17 -20 -19 -90 -17 -65 2 -80 6 -80 19 0 9 3 19 7 22 8 8 173 9 173
1z m3095 0 c23 -9 18 -31 -7 -36 -13 -2 -66 -1 -118 2 -52 3 -97 3 -100 0 -8
-8 -2565 -6 -2571 3 -3 4 -17 4 -30 -1 -20 -8 -208 -5 -217 3 -1 1 0 10 4 19
6 15 120 16 1515 16 830 0 1516 -3 1524 -6z m245 -14 c10 -19 8 -20 -80 -20
-83 0 -90 1 -90 20 0 18 7 20 80 20 69 0 81 -3 90 -20z m-3570 -84 c0 -26 -16
-36 -57 -36 -24 0 -53 -5 -64 -10 -22 -12 -61 -88 -49 -95 10 -6 3962 -5 3972
2 9 5 -25 75 -44 91 -8 6 -40 12 -73 14 -48 2 -60 7 -63 21 -3 15 6 17 86 17
63 0 93 -4 101 -13 11 -14 79 -150 121 -242 144 -318 309 -675 381 -824 103
-213 116 -250 101 -277 -11 -18 -11 -18 -12 3 0 13 -13 37 -29 55 l-29 33
-2494 3 c-1751 2 -2504 0 -2530 -8 -28 -8 -44 -22 -63 -53 l-25 -42 0 39 c0
29 24 91 89 230 49 105 143 310 209 456 175 386 271 592 288 617 13 21 22 23
99 23 47 0 85 -2 85 -4z m-1645 -226 c3 -5 -1 -10 -11 -10 -13 0 -14 -3 -4
-15 8 -9 9 -15 2 -15 -15 0 -25 18 -18 35 6 17 22 20 31 5z m6951 -2 c4 -6 3
-8 -4 -4 -6 3 -15 -2 -21 -11 -9 -15 -10 -15 -11 -2 0 28 23 39 36 17z m-6006
-78 c0 -68 -5 -65 103 -61 60 2 69 -5 39 -32 -19 -18 -115 -17 -150 2 -21 11
-23 15 -41 87 -7 26 -19 45 -33 52 -20 9 -16 11 30 11 l52 1 0 -60z m5177 45
c-9 -8 -18 -33 -22 -55 -11 -62 -31 -80 -105 -90 -92 -14 -157 -12 -163 3 -2
6 -6 16 -8 20 -2 5 43 10 100 12 57 2 108 8 114 14 5 5 7 32 6 60 l-4 51 48 0
c43 0 47 -2 34 -15z m-6097 -205 c0 -5 -5 -10 -11 -10 -6 0 -9 -7 -5 -15 3 -8
1 -15 -4 -15 -14 0 -22 19 -16 35 6 17 36 21 36 5z m6913 4 c6 -6 -21 -39 -31
-39 -3 0 -7 10 -8 23 -3 16 1 22 14 22 10 0 21 -3 25 -6z m-6893 -209 c0 -8
-7 -15 -15 -15 -16 0 -20 12 -8 23 11 12 23 8 23 -8z m20 -149 c0 -2 -7 -9
-15 -16 -12 -10 -15 -10 -15 4 0 9 7 16 15 16 8 0 15 -2 15 -4z m6818 -8 c-3
-7 -11 -13 -18 -13 -7 0 -15 6 -17 13 -3 7 4 12 17 12 13 0 20 -5 18 -12z
m-6768 -172 c0 -2 -7 -6 -15 -10 -8 -3 -15 -1 -15 4 0 6 7 10 15 10 8 0 15 -2
15 -4z m6718 -15 c3 -8 -1 -12 -9 -9 -7 2 -15 10 -17 17 -3 8 1 12 9 9 7 -2
15 -10 17 -17z m-38 -141 c0 -5 -5 -10 -11 -10 -5 0 -7 5 -4 10 3 6 8 10 11
10 2 0 4 -4 4 -10z m-5250 -764 c190 -63 279 -203 280 -437 0 -209 -59 -339
-188 -407 -35 -19 -82 -34 -115 -38 -32 -4 -57 -9 -57 -12 0 -3 21 -29 48 -60
26 -30 90 -107 142 -171 52 -65 123 -152 158 -193 34 -42 62 -79 62 -82 0 -3
-103 -6 -230 -6 l-229 0 -28 36 c-15 20 -66 81 -112 137 -46 56 -117 144 -158
195 l-75 92 -139 0 -139 0 0 -230 0 -230 -174 0 -173 0 -7 38 c-8 52 -8 1377
1 1386 4 4 248 6 543 4 485 -3 540 -6 590 -22z m810 -478 c1 -541 1 -543 54
-613 89 -116 291 -126 393 -19 73 75 73 79 73 641 l0 493 185 0 185 0 0 -532
c0 -298 -4 -559 -10 -592 -22 -135 -114 -268 -242 -349 -370 -237 -911 -57
-993 330 -12 54 -15 177 -15 606 l0 537 185 0 185 0 0 -502z m1562 384 c315
-381 531 -637 539 -640 5 -2 9 159 9 377 l0 381 180 0 180 0 -2 -712 -3 -713
-165 0 -164 0 -59 70 c-159 187 -315 373 -342 406 -179 220 -238 290 -243 285
-3 -4 -5 -169 -4 -368 1 -199 0 -370 -4 -380 -5 -17 -19 -18 -185 -18 l-179 0
-2 711 c-2 391 -1 713 1 715 2 2 81 4 175 3 l171 0 97 -117z m2218 108 c175
-28 307 -156 340 -330 23 -121 5 -292 -39 -378 -53 -102 -162 -177 -275 -189
-31 -3 -55 -9 -54 -14 2 -4 26 -36 55 -71 164 -199 343 -423 343 -430 0 -4
-103 -8 -228 -8 l-229 0 -96 118 c-53 64 -136 167 -184 227 l-88 110 -138 3
-137 3 0 -231 0 -230 -185 0 -185 0 0 715 0 715 518 0 c302 0 544 -4 582 -10z
m-2366 -1926 c49 -19 -10 -24 -264 -24 -251 0 -312 5 -267 23 18 8 512 8 531
1z"/>
<path d="M3765 8231 c3 -5 0 -21 -7 -36 -8 -19 -9 -28 0 -37 8 -8 9 -5 6 13
-4 17 -3 20 4 11 7 -11 10 -11 15 3 4 10 3 14 -4 10 -6 -4 -7 3 -3 19 4 17 2
26 -6 26 -6 0 -9 -4 -5 -9z"/>
<path d="M4483 7755 c-3 -9 -3 -18 -1 -21 3 -3 8 4 11 16 6 23 -1 27 -10 5z"/>
<path d="M4150 7750 c-13 -8 -12 -10 3 -10 9 0 17 5 17 10 0 12 -1 12 -20 0z"/>
<path d="M4754 7746 c16 -9 52 -16 84 -16 69 0 64 8 -9 14 -30 2 -65 7 -79 11
-23 6 -23 5 4 -9z"/>
<path d="M3978 7723 c6 -2 18 -2 25 0 6 3 1 5 -13 5 -14 0 -19 -2 -12 -5z"/>
<path d="M4828 7713 c12 -2 32 -2 45 0 12 2 2 4 -23 4 -25 0 -35 -2 -22 -4z"/>
<path d="M4978 7713 c7 -3 16 -2 19 1 4 3 -2 6 -13 5 -11 0 -14 -3 -6 -6z"/>
<path d="M5023 7703 c9 -2 23 -2 30 0 6 3 -1 5 -18 5 -16 0 -22 -2 -12 -5z"/>
<path d="M3818 7693 c6 -2 18 -2 25 0 6 3 1 5 -13 5 -14 0 -19 -2 -12 -5z"/>
<path d="M3681 7653 c0 -7 -8 -13 -17 -13 -14 0 -14 -3 -4 -15 16 -19 34 -5
27 21 -3 11 -5 13 -6 7z"/>
<path d="M5318 7643 c7 -3 16 -2 19 1 4 3 -2 6 -13 5 -11 0 -14 -3 -6 -6z"/>
<path d="M4465 7620 c-16 -7 -17 -9 -3 -9 9 -1 20 4 23 9 7 11 7 11 -20 0z"/>
<path d="M3378 7581 c-58 -20 -66 -27 -34 -33 14 -3 23 -1 20 4 -3 4 3 11 13
14 10 3 32 12 48 20 40 18 11 15 -47 -5z"/>
<path d="M3673 7575 c-3 -9 -3 -18 -1 -21 3 -3 8 4 11 16 6 23 -1 27 -10 5z"/>
<path d="M4737 7560 c-18 -21 -22 -40 -9 -40 7 0 34 51 29 56 -2 2 -11 -6 -20
-16z"/>
<path d="M3280 7540 c0 -5 7 -7 15 -4 8 4 15 8 15 10 0 2 -7 4 -15 4 -8 0 -15
-4 -15 -10z"/>
<path d="M5278 7533 c7 -3 16 -2 19 1 4 3 -2 6 -13 5 -11 0 -14 -3 -6 -6z"/>
<path d="M4865 7520 c-3 -5 -1 -10 4 -10 6 0 11 5 11 10 0 6 -2 10 -4 10 -3 0
-8 -4 -11 -10z"/>
<path d="M3170 7499 c0 -5 4 -8 9 -5 5 4 11 0 14 -6 2 -7 8 -9 13 -5 5 4 2 12
-6 17 -20 13 -30 12 -30 -1z"/>
<path d="M3120 7480 c-8 -5 -10 -10 -5 -10 6 0 17 5 25 10 8 5 11 10 5 10 -5
0 -17 -5 -25 -10z"/>
<path d="M4840 7460 c-23 -18 -24 -19 -3 -14 12 3 24 12 27 20 7 18 6 18 -24
-6z"/>
<path d="M4950 7458 c0 -9 7 -19 16 -22 24 -9 24 -4 3 18 -16 16 -19 17 -19 4z"/>
<path d="M3508 7433 c7 -3 16 -2 19 1 4 3 -2 6 -13 5 -11 0 -14 -3 -6 -6z"/>
<path d="M5018 7433 c6 -2 18 -2 25 0 6 3 1 5 -13 5 -14 0 -19 -2 -12 -5z"/>
<path d="M3930 7420 c-69 -5 -56 -6 64 -6 82 1 136 4 120 7 -34 8 -69 7 -184
-1z"/>
<path d="M3278 7413 c7 -3 16 -2 19 1 4 3 -2 6 -13 5 -11 0 -14 -3 -6 -6z"/>
<path d="M3548 7413 c12 -2 32 -2 45 0 12 2 2 4 -23 4 -25 0 -35 -2 -22 -4z"/>
<path d="M4213 7413 c26 -2 68 -2 95 0 26 2 4 3 -48 3 -52 0 -74 -1 -47 -3z"/>
<path d="M4468 7413 c34 -2 90 -2 125 0 34 2 6 3 -63 3 -69 0 -97 -1 -62 -3z"/>
<path d="M4938 7413 c12 -2 32 -2 45 0 12 2 2 4 -23 4 -25 0 -35 -2 -22 -4z"/>
<path d="M5218 7413 c6 -2 18 -2 25 0 6 3 1 5 -13 5 -14 0 -19 -2 -12 -5z"/>
<path d="M5578 7413 c6 -2 18 -2 25 0 6 3 1 5 -13 5 -14 0 -19 -2 -12 -5z"/>
<path d="M5638 7413 c12 -2 30 -2 40 0 9 3 -1 5 -23 4 -22 0 -30 -2 -17 -4z"/>
<path d="M6336 7242 c-2 -4 4 -8 14 -8 10 0 16 4 14 8 -3 4 -9 8 -14 8 -5 0
-11 -4 -14 -8z"/>
<path d="M6335 7210 c-3 -6 1 -7 9 -4 18 7 21 14 7 14 -6 0 -13 -4 -16 -10z"/>
<path d="M6415 7190 c-8 -13 9 -20 24 -11 10 6 9 10 -3 14 -8 3 -18 2 -21 -3z"/>
<path d="M6440 7161 c-8 -6 -18 -7 -22 -5 -4 3 -5 -2 -2 -10 5 -12 8 -12 25 2
26 23 26 29 -1 13z"/>
<path d="M6446 7132 c-2 -4 4 -8 14 -8 10 0 16 4 14 8 -3 4 -9 8 -14 8 -5 0
-11 -4 -14 -8z"/>
<path d="M6330 6858 c0 -139 -3 -263 -6 -275 -5 -19 -2 -23 15 -23 21 0 21 3
15 80 -5 57 -4 80 5 80 6 0 11 17 11 40 0 22 -4 40 -9 40 -5 0 -7 42 -5 93 5
106 -4 217 -17 217 -5 0 -9 -113 -9 -252z"/>
<path d="M6532 7085 c9 -10 21 -16 28 -13 7 2 -1 10 -16 17 -27 12 -28 11 -12
-4z"/>
<path d="M6518 7053 c7 -3 16 -2 19 1 4 3 -2 6 -13 5 -11 0 -14 -3 -6 -6z"/>
<path d="M6567 7027 c7 -34 39 -52 59 -32 14 13 13 15 -8 13 -15 -2 -26 4 -33
20 -13 29 -23 28 -18 -1z"/>
<path d="M6635 6970 c3 -5 8 -10 11 -10 2 0 4 5 4 10 0 6 -5 10 -11 10 -5 0
-7 -4 -4 -10z"/>
<path d="M6600 6960 c0 -5 -7 -10 -15 -10 -12 0 -15 -19 -15 -115 0 -63 4
-115 9 -115 12 0 23 29 15 41 -3 5 -7 34 -10 64 -3 42 0 55 10 55 9 0 15 15
18 45 2 25 0 45 -4 45 -5 0 -8 -4 -8 -10z"/>
<path d="M6672 6956 c7 -8 15 -12 17 -11 5 6 -10 25 -20 25 -5 0 -4 -6 3 -14z"/>
<path d="M6652 6910 c0 -19 2 -27 5 -17 2 9 2 25 0 35 -3 9 -5 1 -5 -18z"/>
<path d="M6790 6796 c0 -7 7 -19 15 -26 12 -10 16 -9 21 4 4 9 4 20 0 23 -3 4
-6 -1 -6 -11 0 -10 -5 -14 -11 -11 -6 4 -8 13 -5 21 3 8 1 14 -4 14 -6 0 -10
-6 -10 -14z"/>
<path d="M6650 6787 c0 -19 10 -27 25 -20 17 6 8 33 -11 33 -8 0 -14 -6 -14
-13z"/>
<path d="M6670 6730 c0 -5 5 -10 11 -10 5 0 7 5 4 10 -3 6 -8 10 -11 10 -2 0
-4 -4 -4 -10z"/>
<path d="M6850 6730 c-11 -7 -8 -9 14 -7 28 2 29 0 29 -39 0 -27 4 -41 13 -41
10 0 10 5 3 19 -6 10 -9 26 -7 36 6 35 -21 52 -52 32z"/>
<path d="M6778 6723 c7 -3 16 -2 19 1 4 3 -2 6 -13 5 -11 0 -14 -3 -6 -6z"/>
<path d="M6715 6694 c8 -6 15 -16 15 -21 0 -6 18 -10 40 -9 24 0 40 5 40 13 0
18 -20 27 -33 14 -6 -6 -18 -11 -26 -11 -14 1 -14 2 1 14 15 11 13 12 -18 12
-27 -1 -31 -3 -19 -12z"/>
<path d="M6916 6702 c-8 -13 3 -42 16 -42 5 0 6 -9 3 -20 -5 -15 -2 -20 12
-20 15 0 16 2 3 10 -13 9 -8 14 11 12 4 -1 5 7 2 18 -7 25 -39 54 -47 42z m34
-34 c0 -6 -7 -5 -15 2 -8 7 -15 17 -15 22 0 6 7 5 15 -2 8 -7 15 -17 15 -22z"/>
<path d="M6758 6643 c7 -3 16 -2 19 1 4 3 -2 6 -13 5 -11 0 -14 -3 -6 -6z"/>
<path d="M6583 6633 c9 -2 23 -2 30 0 6 3 -1 5 -18 5 -16 0 -22 -2 -12 -5z"/>
<path d="M6981 6619 c-1 -9 7 -25 17 -36 9 -10 14 -14 10 -8 -4 6 -12 22 -17
36 -6 15 -10 18 -10 8z"/>
<path d="M6973 6578 c5 -14 1 -17 -23 -14 -16 2 -27 -1 -24 -5 6 -10 0 -11
-71 -11 l-50 0 50 -7 c28 -5 58 -4 68 1 9 5 34 6 55 2 l37 -7 -20 24 c-11 13
-22 26 -24 29 -2 3 -1 -3 2 -12z"/>
<path d="M6400 6554 l-85 -11 82 -1 c46 0 86 4 89 9 9 15 6 15 -86 3z"/>
<path d="M6550 6552 c-11 -12 -8 -14 16 -10 16 3 23 3 17 1 -7 -3 -13 -8 -13
-13 0 -5 -10 -11 -22 -13 -13 -2 -9 -3 7 0 57 7 200 22 225 23 23 1 23 1 6 12
-11 6 -41 8 -70 5 -28 -3 -74 -2 -102 2 -38 5 -54 3 -64 -7z"/>
<path d="M6487 6543 c-13 -13 -7 -21 13 -16 11 3 17 9 14 14 -6 11 -18 12 -27
2z"/>
<path d="M6325 6520 c-3 -6 1 -7 9 -4 18 7 21 14 7 14 -6 0 -13 -4 -16 -10z"/>
<path d="M6635 6510 c-25 -11 1 -11 35 0 20 6 21 8 5 8 -11 0 -29 -3 -40 -8z"/>
<path d="M6955 6510 c27 -12 43 -12 25 0 -8 5 -22 9 -30 9 -10 0 -8 -3 5 -9z"/>
<path d="M6428 6503 c12 -2 30 -2 40 0 9 3 -1 5 -23 4 -22 0 -30 -2 -17 -4z"/>
<path d="M6738 6503 c6 -2 18 -2 25 0 6 3 1 5 -13 5 -14 0 -19 -2 -12 -5z"/>
<path d="M2485 7211 c-3 -5 -2 -12 3 -15 5 -3 9 1 9 9 0 17 -3 19 -12 6z"/>
<path d="M2393 7134 c4 -4 0 -12 -9 -18 -13 -10 -13 -12 5 -12 11 0 18 3 15 7
-2 4 1 9 8 11 7 3 4 7 -7 12 -11 4 -16 4 -12 0z"/>
<path d="M2276 7031 c-4 -7 -5 -15 -2 -18 9 -9 19 4 14 18 -4 11 -6 11 -12 0z"/>
<path d="M2220 6980 c-9 -6 -10 -10 -3 -10 6 0 15 5 18 10 8 12 4 12 -15 0z"/>
<path d="M2390 6970 c0 -5 5 -10 10 -10 6 0 10 5 10 10 0 6 -4 10 -10 10 -5 0
-10 -4 -10 -10z"/>
<path d="M2180 6930 c0 -5 5 -10 10 -10 6 0 10 5 10 10 0 6 -4 10 -10 10 -5 0
-10 -4 -10 -10z"/>
<path d="M2170 6898 c0 -5 11 -8 25 -8 14 0 25 4 25 9 0 5 -11 8 -25 7 -14 0
-25 -4 -25 -8z"/>
<path d="M2370 6787 c0 -7 9 -13 20 -14 11 -1 20 4 20 13 0 8 -9 14 -20 14
-11 0 -20 -6 -20 -13z"/>
<path d="M2325 6740 c-3 -11 -10 -20 -15 -20 -4 0 -10 -9 -13 -20 -3 -13 0
-20 10 -20 8 0 11 5 8 10 -3 6 1 10 9 10 9 0 16 -4 16 -9 0 -8 51 -23 58 -16
1 1 -5 18 -15 36 -28 52 -47 62 -58 29z"/>
<path d="M1975 6720 c-16 -16 -26 -32 -23 -35 3 -3 17 10 32 30 33 43 29 45
-9 5z"/>
<path d="M2250 6705 c0 -8 2 -15 4 -15 2 0 6 7 10 15 3 8 1 15 -4 15 -6 0 -10
-7 -10 -15z"/>
<path d="M2361 6644 c0 -11 3 -14 6 -6 3 7 2 16 -1 19 -3 4 -6 -2 -5 -13z"/>
<path d="M1916 6587 c3 -10 9 -15 12 -12 3 3 0 11 -7 18 -10 9 -11 8 -5 -6z"/>
<path d="M2498 6503 c7 -3 16 -2 19 1 4 3 -2 6 -13 5 -11 0 -14 -3 -6 -6z"/>
<path d="M5130 6791 c0 -5 7 -11 15 -15 8 -3 15 -1 15 3 0 5 -7 11 -15 15 -8
3 -15 1 -15 -3z"/>
<path d="M5500 6785 c0 -8 5 -15 10 -15 6 0 10 7 10 15 0 8 -4 15 -10 15 -5 0
-10 -7 -10 -15z"/>
<path d="M5175 6780 c3 -5 8 -10 11 -10 2 0 4 5 4 10 0 6 -5 10 -11 10 -5 0
-7 -4 -4 -10z"/>
<path d="M5270 6781 c0 -6 5 -13 10 -16 6 -3 10 1 10 9 0 9 -4 16 -10 16 -5 0
-10 -4 -10 -9z"/>
<path d="M4510 6770 c0 -5 5 -10 11 -10 5 0 7 5 4 10 -3 6 -8 10 -11 10 -2 0
-4 -4 -4 -10z"/>
<path d="M4985 6771 c-3 -5 -1 -12 5 -16 5 -3 10 1 10 9 0 18 -6 21 -15 7z"/>
<path d="M4866 6756 c3 -9 11 -16 16 -16 13 0 5 23 -10 28 -7 2 -10 -2 -6 -12z"/>
<path d="M4565 6750 c3 -5 8 -10 11 -10 2 0 4 5 4 10 0 6 -5 10 -11 10 -5 0
-7 -4 -4 -10z"/>
<path d="M4625 6751 c-3 -5 -1 -12 5 -16 5 -3 10 1 10 9 0 18 -6 21 -15 7z"/>
<path d="M4533 6735 c0 -8 4 -15 9 -15 4 0 8 4 8 9 0 6 -4 12 -8 15 -5 3 -9
-1 -9 -9z"/>
<path d="M4692 6730 c15 -23 28 -26 28 -6 0 8 -7 17 -16 20 -24 9 -25 8 -12
-14z"/>
<path d="M4821 6739 c-18 -7 -21 -13 -13 -21 8 -8 15 -6 28 6 21 21 16 26 -15
15z"/>
<path d="M4950 6735 c0 -8 5 -15 10 -15 6 0 10 7 10 15 0 8 -4 15 -10 15 -5 0
-10 -7 -10 -15z"/>
<path d="M4365 6730 c3 -5 8 -10 11 -10 2 0 4 5 4 10 0 6 -5 10 -11 10 -5 0
-7 -4 -4 -10z"/>
<path d="M4480 6725 c0 -8 2 -15 4 -15 2 0 6 7 10 15 3 8 1 15 -4 15 -6 0 -10
-7 -10 -15z"/>
<path d="M4585 6720 c3 -5 10 -10 16 -10 5 0 9 5 9 10 0 6 -7 10 -16 10 -8 0
-12 -4 -9 -10z"/>
<path d="M4060 6710 c-9 -6 -10 -10 -3 -10 6 0 15 5 18 10 8 12 4 12 -15 0z"/>
<path d="M4270 6700 c0 -5 5 -10 10 -10 6 0 10 5 10 10 0 6 -4 10 -10 10 -5 0
-10 -4 -10 -10z"/>
<path d="M4445 6700 c3 -5 10 -10 16 -10 5 0 9 5 9 10 0 6 -7 10 -16 10 -8 0
-12 -4 -9 -10z"/>
<path d="M4225 6690 c-3 -5 1 -10 9 -10 9 0 16 5 16 10 0 6 -4 10 -9 10 -6 0
-13 -4 -16 -10z"/>
<path d="M3425 6680 c3 -5 8 -10 11 -10 2 0 4 5 4 10 0 6 -5 10 -11 10 -5 0
-7 -4 -4 -10z"/>
<path d="M4085 6680 c3 -5 8 -10 11 -10 2 0 4 5 4 10 0 6 -5 10 -11 10 -5 0
-7 -4 -4 -10z"/>
<path d="M4143 6660 c12 -31 37 -41 37 -15 0 9 9 15 23 15 20 1 21 1 4 11 -14
8 -21 7 -31 -7 -13 -17 -14 -16 -20 4 -4 12 -11 22 -16 22 -4 0 -3 -13 3 -30z"/>
<path d="M3630 6650 c0 -5 5 -10 11 -10 5 0 7 5 4 10 -3 6 -8 10 -11 10 -2 0
-4 -4 -4 -10z"/>
<path d="M3735 6650 c-3 -5 -1 -10 4 -10 6 0 11 5 11 10 0 6 -2 10 -4 10 -3 0
-8 -4 -11 -10z"/>
<path d="M3355 6640 c-3 -5 -1 -10 4 -10 6 0 11 5 11 10 0 6 -2 10 -4 10 -3 0
-8 -4 -11 -10z"/>
<path d="M3838 6638 c9 -9 15 -9 24 0 9 9 7 12 -12 12 -19 0 -21 -3 -12 -12z"/>
<path d="M3415 6630 c-3 -5 1 -10 9 -10 9 0 16 5 16 10 0 6 -4 10 -9 10 -6 0
-13 -4 -16 -10z"/>
<path d="M3300 6620 c0 -5 5 -10 10 -10 6 0 10 5 10 10 0 6 -4 10 -10 10 -5 0
-10 -4 -10 -10z"/>
<path d="M3375 6604 c9 -9 19 -13 23 -10 3 4 0 11 -8 16 -24 15 -33 11 -15 -6z"/>
<path d="M3482 6600 c14 -22 24 -25 33 -10 3 6 -1 10 -9 10 -9 0 -16 5 -16 10
0 6 -5 10 -10 10 -6 0 -5 -8 2 -20z"/>
<path d="M3247 6573 c-10 -9 -9 -23 2 -23 5 0 11 7 15 15 5 15 -5 20 -17 8z"/>
<path d="M3215 6470 c-3 -5 -1 -10 4 -10 6 0 11 5 11 10 0 6 -2 10 -4 10 -3 0
-8 -4 -11 -10z"/>
<path d="M3210 6410 c0 -5 4 -10 9 -10 6 0 13 5 16 10 3 6 -1 10 -9 10 -9 0
-16 -4 -16 -10z"/>
<path d="M3200 6360 c0 -21 24 -28 35 -10 3 6 -1 10 -10 10 -9 0 -13 5 -10 10
3 6 1 10 -4 10 -6 0 -11 -9 -11 -20z"/>
<path d="M1720 6349 c0 -5 5 -7 10 -4 6 3 10 8 10 11 0 2 -4 4 -10 4 -5 0 -10
-5 -10 -11z"/>
<path d="M6348 6353 c12 -2 32 -2 45 0 12 2 2 4 -23 4 -25 0 -35 -2 -22 -4z"/>
<path d="M2138 6323 c6 -2 18 -2 25 0 6 3 1 5 -13 5 -14 0 -19 -2 -12 -5z"/>
<path d="M1874 6309 c-4 -6 1 -9 12 -8 11 2 25 0 32 -4 6 -5 12 -4 12 1 0 20
-45 28 -56 11z"/>
<path d="M1944 6263 c1 -41 2 -43 31 -42 24 1 26 2 10 7 -11 4 -21 12 -22 17
-1 6 -6 21 -11 35 -9 22 -10 20 -8 -17z"/>
<path d="M1655 6230 c-3 -5 -1 -10 4 -10 6 0 11 5 11 10 0 6 -2 10 -4 10 -3 0
-8 -4 -11 -10z"/>
<path d="M2048 6223 c23 -2 61 -2 85 0 23 2 4 4 -43 4 -47 0 -66 -2 -42 -4z"/>
<path d="M2018 6203 c6 -2 18 -2 25 0 6 3 1 5 -13 5 -14 0 -19 -2 -12 -5z"/>
<path d="M2118 6203 c6 -2 18 -2 25 0 6 3 1 5 -13 5 -14 0 -19 -2 -12 -5z"/>
<path d="M2178 6203 c7 -3 16 -2 19 1 4 3 -2 6 -13 5 -11 0 -14 -3 -6 -6z"/>
<path d="M2313 6183 c37 -2 96 -2 130 0 34 2 4 3 -68 3 -71 0 -99 -1 -62 -3z"/>
<path d="M6431 6274 c0 -11 3 -14 6 -6 3 7 2 16 -1 19 -3 4 -6 -2 -5 -13z"/>
<path d="M6451 6274 c0 -11 3 -14 6 -6 3 7 2 16 -1 19 -3 4 -6 -2 -5 -13z"/>
<path d="M6471 6274 c0 -11 3 -14 6 -6 3 7 2 16 -1 19 -3 4 -6 -2 -5 -13z"/>
<path d="M7021 6258 c-1 -25 2 -28 32 -27 29 2 29 2 5 6 -18 3 -28 12 -31 26
-4 18 -5 17 -6 -5z"/>
<path d="M7207 6273 c-4 -3 -2 -12 4 -19 15 -19 1 -23 -107 -30 -54 -4 -90
-10 -80 -14 10 -3 58 -1 107 5 83 10 89 10 84 -6 -3 -10 -2 -20 3 -23 5 -3 8
15 7 39 -2 46 -7 60 -18 48z"/>
<path d="M6900 6240 c0 -5 -7 -7 -15 -4 -8 4 -15 1 -15 -5 0 -6 11 -11 23 -11
14 0 24 6 24 15 0 8 -4 15 -9 15 -4 0 -8 -4 -8 -10z"/>
<path d="M6498 6223 c7 -3 16 -2 19 1 4 3 -2 6 -13 5 -11 0 -14 -3 -6 -6z"/>
<path d="M6648 6203 c45 -2 119 -2 165 0 45 1 8 3 -83 3 -91 0 -128 -2 -82 -3z"/>
<path d="M6418 6183 c7 -3 16 -2 19 1 4 3 -2 6 -13 5 -11 0 -14 -3 -6 -6z"/>
<path d="M6528 6183 c23 -2 61 -2 85 0 23 2 4 4 -43 4 -47 0 -66 -2 -42 -4z"/>
<path d="M6673 6183 c9 -2 25 -2 35 0 9 3 1 5 -18 5 -19 0 -27 -2 -17 -5z"/>
<path d="M7138 6183 c6 -2 18 -2 25 0 6 3 1 5 -13 5 -14 0 -19 -2 -12 -5z"/>
<path d="M6330 6050 c0 -5 7 -10 15 -10 8 0 15 5 15 10 0 6 -7 10 -15 10 -8 0
-15 -4 -15 -10z"/>
<path d="M6410 5899 c0 -5 9 -9 20 -9 11 0 20 2 20 4 0 2 -9 6 -20 9 -11 3
-20 1 -20 -4z"/>
<path d="M7338 5893 c6 -2 18 -2 25 0 6 3 1 5 -13 5 -14 0 -19 -2 -12 -5z"/>
<path d="M7490 5630 c0 -5 5 -10 11 -10 5 0 7 5 4 10 -3 6 -8 10 -11 10 -2 0
-4 -4 -4 -10z"/>
<path d="M2293 5473 c9 -2 23 -2 30 0 6 3 -1 5 -18 5 -16 0 -22 -2 -12 -5z"/>
<path d="M900 4991 c-18 -36 -12 -41 50 -41 62 0 69 6 54 44 -9 25 -90 22
-104 -3z"/>
<path d="M4090 4543 l-1626 -3 -31 -73 c-78 -178 -152 -346 -171 -387 -94
-207 -225 -521 -219 -526 4 -4 4552 -9 4764 -5 l52 1 -12 33 c-7 18 -104 241
-217 495 l-205 462 -311 0 c-171 0 -331 1 -355 3 -24 2 -775 2 -1669 0z m1727
-150 c40 -18 83 -80 83 -119 0 -39 -54 -92 -106 -105 -144 -34 -266 66 -204
166 48 78 135 100 227 58z m-2447 -98 l0 -75 120 0 120 0 0 -115 0 -114 -122
-3 -123 -3 2 -72 1 -73 -174 0 -174 0 0 75 0 74 -122 3 -123 3 -3 112 -3 112
123 3 123 3 -1 73 -1 72 178 0 179 0 0 -75z m1080 -20 c22 -23 22 -25 4 -25
-23 0 -258 -119 -329 -166 -56 -38 -75 -42 -75 -16 0 29 20 46 115 99 50 28
122 69 160 91 39 22 77 41 86 41 8 1 26 -10 39 -24z m512 -7 l22 -22 -37 -8
c-42 -9 -294 -132 -354 -173 -21 -14 -41 -25 -45 -25 -14 0 -8 47 7 60 34 29
342 190 363 190 12 0 32 -10 44 -22z m534 -50 c40 -28 74 -85 74 -126 0 -42
-53 -87 -114 -96 -75 -12 -132 2 -173 40 -33 31 -35 37 -30 79 8 77 68 125
156 125 40 0 63 -6 87 -22z m659 -3 c53 -31 75 -64 75 -113 0 -118 -228 -154
-312 -49 -36 45 -8 129 56 168 46 28 128 26 181 -6z m-348 -196 c87 -42 122
-132 73 -184 -26 -28 -99 -55 -147 -55 -43 0 -96 22 -128 54 -51 51 -22 146
58 185 53 27 89 26 144 0z"/>
<path d="M5670 4358 c0 -5 -4 -6 -10 -3 -5 3 -10 1 -10 -5 0 -6 -5 -8 -12 -4
-7 4 -8 3 -4 -4 5 -8 13 -9 25 -3 13 7 18 6 18 -4 0 -17 -24 -28 -32 -15 -10
16 -34 11 -45 -10 -14 -26 10 -83 45 -106 33 -21 128 -23 169 -3 41 20 70 62
62 91 -10 39 -23 51 -55 53 -22 1 -29 -1 -21 -9 5 -5 10 -14 10 -19 0 -5 -7
-2 -15 7 -9 8 -23 12 -33 9 -11 -4 -9 1 7 13 l23 20 -61 0 c-34 1 -61 -3 -61
-8z m50 -8 c12 -8 10 -10 -10 -11 -20 -1 -19 -3 10 -10 19 -4 41 -6 49 -4 9 4
11 0 7 -10 -3 -8 0 -15 6 -15 6 0 0 -8 -13 -19 -42 -32 -117 -8 -93 31 9 13
10 18 13 38 1 13 12 13 31 0z"/>
<path d="M3080 4240 l0 -70 -115 0 -115 0 0 -59 c0 -58 1 -59 31 -65 17 -3 69
-6 115 -6 l84 0 0 -37 c0 -21 3 -55 6 -76 l7 -38 101 3 101 3 3 72 3 72 112 3
112 3 0 60 0 60 -112 3 -113 3 0 69 0 70 -110 0 -110 0 0 -70z"/>
<path d="M5410 4190 c13 -8 13 -12 -3 -27 -15 -15 -20 -16 -38 -5 -12 8 -18 9
-15 4 3 -6 -5 -9 -18 -8 -13 0 -22 4 -19 9 2 4 0 7 -6 7 -15 0 -41 -42 -41
-66 0 -54 90 -101 170 -88 97 16 138 83 85 140 -15 16 -24 24 -21 19 2 -6 1
-17 -5 -25 -7 -12 -9 -12 -9 4 0 13 -5 16 -16 12 -14 -5 -15 -4 -5 8 14 16 -4
26 -47 26 -21 0 -24 -2 -12 -10z m25 -50 c-19 -8 -18 -9 4 -9 24 -1 24 -1 5
-16 -20 -15 -89 -20 -98 -7 -3 5 9 7 27 5 31 -3 31 -3 7 8 l-25 12 25 7 c14 5
36 8 50 8 23 1 23 0 5 -8z m55 -14 c0 -2 -8 -10 -17 -17 -16 -13 -17 -12 -4 4
13 16 21 21 21 13z m11 -19 c-10 -9 -11 -8 -5 6 3 10 9 15 12 12 3 -3 0 -11
-7 -18z"/>
<path d="M6098 4193 c-10 -2 -18 -9 -18 -14 0 -14 26 -11 40 6 13 15 9 16 -22
8z"/>
<path d="M6018 4183 c7 -3 16 -2 19 1 4 3 -2 6 -13 5 -11 0 -14 -3 -6 -6z"/>
<path d="M6132 4179 c-22 -8 -22 -29 -1 -29 6 0 7 5 4 10 -9 14 8 12 25 -2 12
-11 12 -10 2 3 -6 9 -9 19 -5 22 8 9 4 8 -25 -4z"/>
<path d="M5973 4175 c3 -6 -2 -19 -10 -30 -15 -20 -15 -20 -10 3 4 19 3 21 -9
11 -24 -20 -17 -75 15 -111 28 -31 33 -33 98 -33 81 1 125 21 143 65 10 24 10
36 0 60 -15 36 -28 47 -26 23 0 -10 -6 -18 -14 -18 -22 -1 -60 -15 -60 -23 0
-10 -92 -8 -107 1 -22 14 -15 29 8 17 11 -7 23 -9 27 -6 3 3 0 6 -6 6 -6 0
-21 10 -33 23 -12 12 -19 17 -16 12z"/>
<path d="M5718 3993 c6 -2 18 -2 25 0 6 3 1 5 -13 5 -14 0 -19 -2 -12 -5z"/>
<path d="M5627 3950 c-49 -39 -28 -103 43 -135 56 -25 143 -14 182 25 32 32
37 79 12 104 -21 21 -21 21 -18 -16 2 -18 1 -26 -2 -18 -2 8 -22 25 -44 37
-36 19 -39 19 -30 3 8 -15 6 -17 -12 -12 -17 4 -20 2 -15 -11 4 -11 1 -17 -7
-17 -23 0 -46 11 -41 20 3 4 -2 13 -10 20 -8 7 -15 9 -15 4 0 -5 -4 -3 -8 4
-7 10 -15 8 -35 -8z m10 -32 c2 -18 0 -20 -7 -8 -12 18 -13 30 -2 30 4 0 9
-10 9 -22z"/>
<path d="M1759 2473 c-2 -12 -2 -42 -1 -140 l2 -93 260 0 c281 0 344 8 390 47
26 21 30 32 30 73 0 61 -25 94 -84 109 -50 12 -595 16 -597 4z"/>
<path d="M6390 2360 l0 -121 303 3 c265 3 306 5 337 21 64 31 87 100 53 157
-31 53 -43 55 -380 58 l-313 3 0 -121z"/>
</g>
</svg>
